<svg id="visual" viewBox="0 0 1920 750" width="1920" height="750" xmlns="http://www.w3.org/2000/svg" xmlns:xlink="http://www.w3.org/1999/xlink" version="1.1"><rect x="0" y="0" width="1920" height="750" fill="#000910"></rect><defs><linearGradient id="grad1_0" x1="60.9%" y1="0%" x2="100%" y2="100%"><stop offset="-1.1999999999999993%" stop-color="#37e093" stop-opacity="1"></stop><stop offset="101.2%" stop-color="#37e093" stop-opacity="1"></stop></linearGradient></defs><defs><linearGradient id="grad1_1" x1="60.9%" y1="0%" x2="100%" y2="100%"><stop offset="-1.1999999999999993%" stop-color="#37e093" stop-opacity="1"></stop><stop offset="101.2%" stop-color="#00a791" stop-opacity="1"></stop></linearGradient></defs><defs><linearGradient id="grad1_2" x1="60.9%" y1="0%" x2="100%" y2="100%"><stop offset="-1.1999999999999993%" stop-color="#006f77" stop-opacity="1"></stop><stop offset="101.2%" stop-color="#00a791" stop-opacity="1"></stop></linearGradient></defs><defs><linearGradient id="grad1_3" x1="60.9%" y1="0%" x2="100%" y2="100%"><stop offset="-1.1999999999999993%" stop-color="#006f77" stop-opacity="1"></stop><stop offset="101.2%" stop-color="#003a49" stop-opacity="1"></stop></linearGradient></defs><defs><linearGradient id="grad1_4" x1="60.9%" y1="0%" x2="100%" y2="100%"><stop offset="-1.1999999999999993%" stop-color="#000910" stop-opacity="1"></stop><stop offset="101.2%" stop-color="#003a49" stop-opacity="1"></stop></linearGradient></defs><defs><linearGradient id="grad2_0" x1="0%" y1="0%" x2="39.1%" y2="100%"><stop offset="-1.1999999999999993%" stop-color="#37e093" stop-opacity="1"></stop><stop offset="101.2%" stop-color="#37e093" stop-opacity="1"></stop></linearGradient></defs><defs><linearGradient id="grad2_1" x1="0%" y1="0%" x2="39.1%" y2="100%"><stop offset="-1.1999999999999993%" stop-color="#00a791" stop-opacity="1"></stop><stop offset="101.2%" stop-color="#37e093" stop-opacity="1"></stop></linearGradient></defs><defs><linearGradient id="grad2_2" x1="0%" y1="0%" x2="39.1%" y2="100%"><stop offset="-1.1999999999999993%" stop-color="#00a791" stop-opacity="1"></stop><stop offset="101.2%" stop-color="#006f77" stop-opacity="1"></stop></linearGradient></defs><defs><linearGradient id="grad2_3" x1="0%" y1="0%" x2="39.1%" y2="100%"><stop offset="-1.1999999999999993%" stop-color="#003a49" stop-opacity="1"></stop><stop offset="101.2%" stop-color="#006f77" stop-opacity="1"></stop></linearGradient></defs><defs><linearGradient id="grad2_4" x1="0%" y1="0%" x2="39.1%" y2="100%"><stop offset="-1.1999999999999993%" stop-color="#003a49" stop-opacity="1"></stop><stop offset="101.2%" stop-color="#000910" stop-opacity="1"></stop></linearGradient></defs><g transform="translate(1920, 0)"><path d="M0 487.5C-94.3 480 -188.6 472.4 -243.7 422.2C-298.9 371.9 -314.9 279 -349 201.5C-383.1 124 -435.3 62 -487.5 0L0 0Z" fill="#07222d"></path><path d="M0 390C-75.4 384 -150.9 377.9 -195 337.7C-239.1 297.6 -251.9 223.2 -279.2 161.2C-306.5 99.2 -348.2 49.6 -390 0L0 0Z" fill="#005362"></path><path d="M0 292.5C-56.6 288 -113.2 283.5 -146.2 253.3C-179.3 223.2 -188.9 167.4 -209.4 120.9C-229.9 74.4 -261.2 37.2 -292.5 0L0 0Z" fill="#008b87"></path><path d="M0 195C-37.7 192 -75.4 189 -97.5 168.9C-119.6 148.8 -126 111.6 -139.6 80.6C-153.2 49.6 -174.1 24.8 -195 0L0 0Z" fill="#00c495"></path><path d="M0 97.5C-18.9 96 -37.7 94.5 -48.7 84.4C-59.8 74.4 -63 55.8 -69.8 40.3C-76.6 24.8 -87.1 12.4 -97.5 0L0 0Z" fill="#37e093"></path></g><g transform="translate(0, 750)"><path d="M0 -487.5C63.1 -437.2 126.2 -386.8 203.5 -352.5C280.8 -318.1 372.5 -299.8 422.2 -243.8C471.9 -187.7 479.7 -93.8 487.5 0L0 0Z" fill="#07222d"></path><path d="M0 -390C50.5 -349.7 100.9 -309.4 162.8 -282C224.7 -254.5 298 -239.9 337.7 -195C377.5 -150.1 383.8 -75.1 390 0L0 0Z" fill="#005362"></path><path d="M0 -292.5C37.8 -262.3 75.7 -232.1 122.1 -211.5C168.5 -190.9 223.5 -179.9 253.3 -146.3C283.1 -112.6 287.8 -56.3 292.5 0L0 0Z" fill="#008b87"></path><path d="M0 -195C25.2 -174.9 50.5 -154.7 81.4 -141C112.3 -127.3 149 -119.9 168.9 -97.5C188.8 -75.1 191.9 -37.5 195 0L0 0Z" fill="#00c495"></path><path d="M0 -97.5C12.6 -87.4 25.2 -77.4 40.7 -70.5C56.2 -63.6 74.5 -60 84.4 -48.8C94.4 -37.5 95.9 -18.8 97.5 0L0 0Z" fill="#37e093"></path></g></svg>